<?xml version="1.0" encoding="UTF-8" standalone="no"?>
<!-- Created with Inkscape (http://www.inkscape.org/) -->
<svg
   xmlns:dc="http://purl.org/dc/elements/1.1/"
   xmlns:cc="http://creativecommons.org/ns#"
   xmlns:rdf="http://www.w3.org/1999/02/22-rdf-syntax-ns#"
   xmlns:svg="http://www.w3.org/2000/svg"
   xmlns="http://www.w3.org/2000/svg"
   xmlns:sodipodi="http://sodipodi.sourceforge.net/DTD/sodipodi-0.dtd"
   xmlns:inkscape="http://www.inkscape.org/namespaces/inkscape"
   width="40"
   height="40"
   id="svg2"
   sodipodi:version="0.32"
   inkscape:version="0.46"
   version="1.0"
   sodipodi:docname="hand_open.svg"
   inkscape:output_extension="org.inkscape.output.svg.inkscape">
  <defs
     id="defs4">
    <inkscape:perspective
       sodipodi:type="inkscape:persp3d"
       inkscape:vp_x="0 : 526.18109 : 1"
       inkscape:vp_y="0 : 1000 : 0"
       inkscape:vp_z="744.09448 : 526.18109 : 1"
       inkscape:persp3d-origin="372.04724 : 350.78739 : 1"
       id="perspective10" />
    <inkscape:perspective
       id="perspective2390"
       inkscape:persp3d-origin="372.04724 : 350.78739 : 1"
       inkscape:vp_z="744.09448 : 526.18109 : 1"
       inkscape:vp_y="0 : 1000 : 0"
       inkscape:vp_x="0 : 526.18109 : 1"
       sodipodi:type="inkscape:persp3d" />
  </defs>
  <sodipodi:namedview
     id="base"
     pagecolor="#ffffff"
     bordercolor="#666666"
     borderopacity="1.0"
     inkscape:pageopacity="0.0"
     inkscape:pageshadow="2"
     inkscape:zoom="11.313708"
     inkscape:cx="16.418058"
     inkscape:cy="23.924944"
     inkscape:document-units="px"
     inkscape:current-layer="layer1"
     showgrid="false"
     inkscape:window-width="1076"
     inkscape:window-height="719"
     inkscape:window-x="0"
     inkscape:window-y="25" />
  <metadata
     id="metadata7">
    <rdf:RDF>
      <cc:Work
         rdf:about="">
        <dc:format>image/svg+xml</dc:format>
        <dc:type
           rdf:resource="http://purl.org/dc/dcmitype/StillImage" />
      </cc:Work>
    </rdf:RDF>
  </metadata>
  <g
     inkscape:label="Calque 1"
     inkscape:groupmode="layer"
     id="layer1">
    <path
       style="fill:#ffffff;fill-opacity:1;fill-rule:evenodd;stroke:#000000;stroke-width:1;stroke-linecap:butt;stroke-linejoin:round;stroke-miterlimit:4;stroke-dasharray:none;stroke-opacity:1"
       d="M 16.976535,31.727344 C 17.070285,29.008594 16.613209,27.945585 14.624472,25.862145 C 12.635734,23.778705 10.28868,22.253528 9.8767562,21.120742 C 9.4979477,20.079022 9.5850362,17.328863 12.141984,18.654688 C 14.698932,19.980512 15.421527,21.789646 15.558863,21.402944 C 15.953795,20.290921 13.065633,13.681553 12.428945,12.408176 C 11.766032,11.08235 13.560608,8.9013548 15.265239,10.890092 C 16.969872,12.87883 17.925456,19.032544 18.11486,17.612017 C 18.304263,16.19149 17.028872,10.659418 17.553312,8.7148058 C 18.026996,6.9583973 20.299664,7.6730858 20.773173,9.1883153 C 21.055644,10.092224 21.806327,16.567441 22.46924,17.893265 C 23.132154,19.219091 22.003344,12.309668 22.28745,10.605035 C 22.622814,8.5928513 25.418051,8.9022323 25.511118,11.267947 C 25.603916,13.626808 25.878504,18.650881 26.257311,19.029688 C 26.636118,19.408495 26.896325,14.878697 27.136278,14.018107 C 27.714008,11.946089 29.767883,12.821593 29.963055,14.142314 C 30.089369,14.997067 29.810175,20.507917 29.126561,23.744672 C 28.442948,26.981428 26.593527,29.134466 26.732724,31.90723"
       id="path2408"
       sodipodi:nodetypes="csssssssssssssssss" />
  </g>
</svg>
